<?xml version="1.0" encoding="UTF-8" standalone="no"?>
<!-- Created with Inkscape (http://www.inkscape.org/) -->

<svg
   xmlns:dc="http://purl.org/dc/elements/1.1/"
   xmlns:cc="http://creativecommons.org/ns#"
   xmlns:rdf="http://www.w3.org/1999/02/22-rdf-syntax-ns#"
   xmlns:svg="http://www.w3.org/2000/svg"
   xmlns="http://www.w3.org/2000/svg"
   xmlns:xlink="http://www.w3.org/1999/xlink"
   xmlns:sodipodi="http://sodipodi.sourceforge.net/DTD/sodipodi-0.dtd"
   xmlns:inkscape="http://www.inkscape.org/namespaces/inkscape"
   width="177.73361"
   height="304.95892"
   id="svg2"
   version="1.1"
   inkscape:version="0.48.2 r9819"
   sodipodi:docname="Nouveau document 1">
  <defs
     id="defs4">
    <linearGradient
       id="linearGradient3758">
      <stop
         style="stop-color:#0b376e;stop-opacity:1;"
         offset="0"
         id="stop3760" />
      <stop
         style="stop-color:#6ca7f1;stop-opacity:1;"
         offset="1"
         id="stop3762" />
    </linearGradient>
    <linearGradient
       inkscape:collect="always"
       xlink:href="#linearGradient3758"
       id="linearGradient3814"
       gradientUnits="userSpaceOnUse"
       x1="131.34457"
       y1="170.82198"
       x2="308.57224"
       y2="170.82198" />
  </defs>
  <sodipodi:namedview
     id="base"
     pagecolor="#ffffff"
     bordercolor="#666666"
     borderopacity="1.0"
     inkscape:pageopacity="0.0"
     inkscape:pageshadow="2"
     inkscape:zoom="0.98994949"
     inkscape:cx="88.921779"
     inkscape:cy="206.12815"
     inkscape:document-units="px"
     inkscape:current-layer="layer1"
     showgrid="false"
     fit-margin-top="0"
     fit-margin-left="0"
     fit-margin-right="0"
     fit-margin-bottom="0"
     inkscape:window-width="1366"
     inkscape:window-height="712"
     inkscape:window-x="0"
     inkscape:window-y="25"
     inkscape:window-maximized="1" />
  <metadata
     id="metadata7">
    <rdf:RDF>
      <cc:Work
         rdf:about="">
        <dc:format>image/svg+xml</dc:format>
        <dc:type
           rdf:resource="http://purl.org/dc/dcmitype/StillImage" />
        <dc:title></dc:title>
      </cc:Work>
    </rdf:RDF>
  </metadata>
  <g
     inkscape:label="Calque 1"
     inkscape:groupmode="layer"
     id="layer1"
     transform="translate(-150.03151,-120.41416)">
    <g
       id="g3806"
       transform="translate(19.192898,201.02036)">
      <path
         sodipodi:nodetypes="ssssss"
         inkscape:connector-curvature="0"
         id="path2987"
         d="m 308.57143,132.36218 c 0.20604,-17.35629 -39.65478,31.42857 -88.57143,31.42857 -48.91665,0 -88.39458,-48.78519 -88.57143,-31.42857 l -0.58908,57.81258 c -0.45562,44.71556 176.49517,46.36425 177.04373,0.15735 z"
         style="fill:url(#linearGradient3814);fill-opacity:1;stroke:none" />
      <path
         d="m 308.57143,132.36218 c 0,17.35752 -39.65478,31.42857 -88.57143,31.42857 -48.91665,0 -88.57143,-14.07105 -88.57143,-31.42857 0,-17.35752 39.65478,-31.42857 88.57143,-31.42857 48.91665,0 88.57143,14.07105 88.57143,31.42857 z"
         sodipodi:ry="31.428572"
         sodipodi:rx="88.571426"
         sodipodi:cy="132.36218"
         sodipodi:cx="220"
         id="path2985"
         style="fill:#1468cf;fill-opacity:1;stroke:none"
         sodipodi:type="arc" />
      <path
         inkscape:connector-curvature="0"
         id="path3766"
         d="m 146.71348,126.72507 -1.89302,13.40049 9.32452,-7.39826 30.43946,1.56488 20.68807,-13.72756 -32.54589,0.49021 7.21807,-5.34313 z"
         style="fill:#ffffff;fill-opacity:0.57191784;stroke:none" />
      <path
         inkscape:connector-curvature="0"
         id="path3766-7"
         d="m 299.58854,134.31692 -5.96522,-13.40049 -6.99213,7.39826 -38.78601,-1.56488 -17.18077,13.72756 40.12735,-0.49021 -5.6508,5.34313 z"
         style="fill:#ffffff;fill-opacity:0.57191784;stroke:none" />
      <path
         style="fill:#ffffff;fill-opacity:0.57191784;stroke:none"
         d="m 247.74024,105.18261 -37.70916,4.21799 17.20377,0.0477 -17.79081,9.29306 30.44328,1.06055 12.80071,-9.16747 12.21362,0.17333 z"
         id="path3786"
         inkscape:connector-curvature="0" />
      <path
         style="fill:#ffffff;fill-opacity:0.57191784;stroke:none"
         d="m 182.87682,154.57515 37.70916,-4.21799 -17.20377,-0.0477 17.79081,-9.29306 -30.44328,-1.06055 -12.80071,9.16747 -12.21362,-0.17333 z"
         id="path3786-0"
         inkscape:connector-curvature="0" />
    </g>
    <path
       transform="matrix(1.4285678,0,0,1.1382086,-123.81984,17.769835)"
       style="fill:#fc4b5b;fill-opacity:1;stroke:#000000;stroke-width:2.72516894;stroke-miterlimit:4;stroke-opacity:1;stroke-dasharray:none"
       d="m 305.06606,153.32642 c 0.2787,39.87531 -28.87146,77.32373 -53.03301,122.85634 -18.25356,-38.19253 -45.29582,-85.11206 -45.96194,-122.85634 0,-34.03141 22.16078,-61.619309 49.49748,-61.619309 27.3367,0 49.49747,27.587899 49.49747,61.619309 z"
       id="path3816"
       inkscape:connector-curvature="0"
       sodipodi:nodetypes="cccsc" />
    <path
       sodipodi:type="arc"
       style="fill:#000000;fill-opacity:1;stroke:none"
       id="path3819"
       sodipodi:cx="234.86047"
       sodipodi:cy="185.65131"
       sodipodi:rx="9.5964489"
       sodipodi:ry="13.131983"
       d="m 244.45692,185.65131 c 0,7.25259 -4.29647,13.13198 -9.59645,13.13198 -5.29997,0 -9.59645,-5.87939 -9.59645,-13.13198 0,-7.2526 4.29648,-13.13199 9.59645,-13.13199 5.29998,0 9.59645,5.87939 9.59645,13.13199 z"
       transform="matrix(2.4210526,0,0,1.6428572,-328.19326,-114.29651)" />
  </g>
</svg>
